<?xml version="1.0" encoding="utf-8"?>
<!-- Generator: Adobe Illustrator 19.2.1, SVG Export Plug-In . SVG Version: 6.00 Build 0)  -->
<svg version="1.1" id="Capa_1" xmlns="http://www.w3.org/2000/svg" xmlns:xlink="http://www.w3.org/1999/xlink" x="0px" y="0px"
	 viewBox="0 0 1567.3 800" style="enable-background:new 0 0 1567.3 800;" xml:space="preserve">
<style type="text/css">
	.st0{opacity:0.24;}
	.st1{fill:url(#SVGID_1_);}
	.st2{fill:url(#SVGID_2_);}
	.st3{fill:url(#SVGID_3_);}
	.st4{fill:url(#SVGID_4_);}
	.st5{fill:url(#SVGID_5_);}
	.st6{fill:url(#SVGID_6_);}
	.st7{fill:url(#SVGID_7_);}
	.st8{fill:url(#SVGID_8_);}
	.st9{fill:url(#SVGID_9_);}
	.st10{fill:url(#SVGID_10_);}
	.st11{fill:url(#SVGID_11_);}
</style>
<g class="st0">
	<g>
		<g>
			<linearGradient id="SVGID_1_" gradientUnits="userSpaceOnUse" x1="-0.4166" y1="446.7728" x2="1528.8309" y2="446.7728">
				<stop  offset="0" style="stop-color:#6D28D9;stop-opacity:0"/>
				<stop  offset="0.337" style="stop-color:#6D28D9"/>
				<stop  offset="0.4293" style="stop-color:#6F2BDA"/>
				<stop  offset="0.5098" style="stop-color:#7636DD"/>
				<stop  offset="0.5859" style="stop-color:#8148E1"/>
				<stop  offset="0.6593" style="stop-color:#9061E8"/>
				<stop  offset="0.7309" style="stop-color:#A482F0"/>
				<stop  offset="0.8" style="stop-color:#BDA9FA"/>
				<stop  offset="0.8185" style="stop-color:#C4B5FD"/>
				<stop  offset="1" style="stop-color:#C4B5FD;stop-opacity:0"/>
			</linearGradient>
			<path class="st1" d="M1.3,607.5C57,524.5,160.5,490.4,255.4,479.8c56.1-6.3,112.6-5.6,168.9-4.9c58.4,0.8,116.9,1.5,175.3,2.3
				c59,0.8,117.9,1.5,176.9,2.3c58.3,0.8,116.8,3.2,175,0.7c54.9-2.4,108.8-13.2,162.6-23.6c47.1-9.1,94.1-18.9,140.5-31.3
				c88.5-23.5,176.9-56.8,249-114.6c8.9-7.2,17.6-14.7,25.9-22.6c1.4-1.3-0.7-3.4-2.1-2.1c-69.4,65.5-158.9,103.7-249.5,129.8
				c-46.5,13.4-93.8,23.9-141.3,33.4c-53.6,10.7-107.7,22.4-162.3,26.7c-58.6,4.6-117.7,1.7-176.4,1c-59-0.8-117.9-1.5-176.9-2.3
				c-59-0.8-117.9-1.5-176.9-2.3c-56.1-0.7-112.5-2-168.5,2.7c-92.9,7.8-193.3,34.4-257.7,106.4c-7,7.8-13.3,16.1-19.2,24.7
				C-2.4,607.5,0.2,609.1,1.3,607.5L1.3,607.5z"/>
		</g>
	</g>
	<g>
		<g>
			<linearGradient id="SVGID_2_" gradientUnits="userSpaceOnUse" x1="8.1812" y1="450.9656" x2="1530.7698" y2="450.9656">
				<stop  offset="0" style="stop-color:#6D28D9;stop-opacity:0"/>
				<stop  offset="0.337" style="stop-color:#6D28D9"/>
				<stop  offset="0.4293" style="stop-color:#6F2BDA"/>
				<stop  offset="0.5098" style="stop-color:#7636DD"/>
				<stop  offset="0.5859" style="stop-color:#8148E1"/>
				<stop  offset="0.6593" style="stop-color:#9061E8"/>
				<stop  offset="0.7309" style="stop-color:#A482F0"/>
				<stop  offset="0.8" style="stop-color:#BDA9FA"/>
				<stop  offset="0.8185" style="stop-color:#C4B5FD"/>
				<stop  offset="1" style="stop-color:#C4B5FD;stop-opacity:0"/>
			</linearGradient>
			<path class="st2" d="M1529.4,317.6c-73.5,59.7-164.3,92.6-255.3,114.8c-46.8,11.4-94.2,20.2-141.7,28
				c-54.3,8.9-108.9,18.5-163.9,20.6c-56.7,2.1-113.8-1.6-170.5-3.6c-57.1-2-114.1-4.1-171.2-6.1c-57.3-2-114.6-4-171.9-5.8
				c-55-1.7-110.2-3.9-165.2-0.7c-92.3,5.4-191.8,27.6-260.7,93.6c-7.7,7.4-14.9,15.3-21.5,23.7c-1.2,1.5,0.9,3.6,2.1,2.1
				c60.7-77,163.1-106.5,256.8-114.8c54.9-4.9,110.1-3.5,165.2-1.8c57,1.7,113.9,3.7,170.9,5.7c57.1,2,114.1,4.1,171.2,6.1
				c56.8,2,113.8,5.3,170.7,5c55.1-0.4,109.3-8.6,163.6-17.2c47.5-7.5,95-15.7,142-26.2c89.8-20.1,180.4-49,256.5-102.5
				c8.6-6,16.9-12.3,25-18.9C1533,318.5,1530.9,316.4,1529.4,317.6L1529.4,317.6z"/>
		</g>
	</g>
	<g>
		<g>
			<linearGradient id="SVGID_3_" gradientUnits="userSpaceOnUse" x1="16.7831" y1="455.1589" x2="1532.7047" y2="455.1589">
				<stop  offset="0" style="stop-color:#6D28D9;stop-opacity:0"/>
				<stop  offset="0.337" style="stop-color:#6D28D9"/>
				<stop  offset="0.4293" style="stop-color:#6F2BDA"/>
				<stop  offset="0.5098" style="stop-color:#7636DD"/>
				<stop  offset="0.5859" style="stop-color:#8148E1"/>
				<stop  offset="0.6593" style="stop-color:#9061E8"/>
				<stop  offset="0.7309" style="stop-color:#A482F0"/>
				<stop  offset="0.8" style="stop-color:#BDA9FA"/>
				<stop  offset="0.8185" style="stop-color:#C4B5FD"/>
				<stop  offset="1" style="stop-color:#C4B5FD;stop-opacity:0"/>
			</linearGradient>
			<path class="st3" d="M1531.7,349.2c-77,52.9-168.1,80.8-258.8,99.2c-47.9,9.7-96.3,16.9-144.7,23.1c-52.9,6.8-106,14-159.4,14.3
				c-55.3,0.4-110.6-4.2-165.8-7.4c-56-3.3-111.9-6.7-167.9-9.9c-55.3-3.2-110.5-6.3-165.8-9.2c-54.1-2.8-108.3-5.8-162.5-4.1
				c-93.2,2.8-192.9,20.8-267,81.5c-8.4,6.9-16.3,14.3-23.7,22.3c-1.3,1.4,0.8,3.5,2.1,2.1c66.6-71.6,169.6-96.2,263.7-101.8
				c54.2-3.2,108.6-0.9,162.8,1.8c55,2.7,109.9,5.7,164.9,8.9c55.5,3.2,110.9,6.5,166.4,9.8c55.3,3.3,110.6,7.5,166,8.8
				c54.3,1.3,107.9-4.4,161.7-11c47-5.8,94-12.2,140.7-20.6c90.1-16.4,181.1-40.3,260.6-87.1c9.6-5.7,19-11.7,28.2-18
				C1534.8,350.7,1533.3,348.1,1531.7,349.2L1531.7,349.2z"/>
		</g>
	</g>
	<g>
		<g>
			<linearGradient id="SVGID_4_" gradientUnits="userSpaceOnUse" x1="25.3893" y1="459.3525" x2="1534.6357" y2="459.3525">
				<stop  offset="0" style="stop-color:#6D28D9;stop-opacity:0"/>
				<stop  offset="0.337" style="stop-color:#6D28D9"/>
				<stop  offset="0.4293" style="stop-color:#6F2BDA"/>
				<stop  offset="0.5098" style="stop-color:#7636DD"/>
				<stop  offset="0.5859" style="stop-color:#8148E1"/>
				<stop  offset="0.6593" style="stop-color:#9061E8"/>
				<stop  offset="0.7309" style="stop-color:#A482F0"/>
				<stop  offset="0.8" style="stop-color:#BDA9FA"/>
				<stop  offset="0.8185" style="stop-color:#C4B5FD"/>
				<stop  offset="1" style="stop-color:#C4B5FD;stop-opacity:0"/>
			</linearGradient>
			<path class="st4" d="M1533.6,380.9c-81.2,46.2-173.5,69.1-265.1,83.7c-48.6,7.7-97.6,13.1-146.7,17.6
				c-52.8,4.8-105.7,9.6-158.7,8c-53.5-1.6-106.9-7-160.2-11.4c-54.3-4.5-108.6-9.1-162.9-13.5c-54.1-4.4-108.2-8.7-162.3-12.5
				c-53.2-3.8-106.4-7.5-159.8-7.1c-93.2,0.8-192.7,15.5-270.2,71.1c-8.1,5.8-15.8,12-23.1,18.7c-1.4,1.3,0.7,3.4,2.1,2.1
				c71.8-65,173.9-85.2,267.7-88.5c53.5-1.9,107.1,1.4,160.4,5c53.3,3.6,106.5,7.7,159.7,12c107.8,8.7,215.5,20,323.5,25.9
				c54,2.9,107.5-0.2,161.3-4.9c47.1-4.1,94.2-8.8,141-15.3c90.9-12.8,182.8-32.3,265.7-72.9c9.8-4.8,19.5-9.9,29-15.4
				C1536.8,382.6,1535.3,380,1533.6,380.9L1533.6,380.9z"/>
		</g>
	</g>
	<g>
		<g>
			<linearGradient id="SVGID_5_" gradientUnits="userSpaceOnUse" x1="33.9995" y1="463.5465" x2="1536.5632" y2="463.5465">
				<stop  offset="0" style="stop-color:#6D28D9;stop-opacity:0"/>
				<stop  offset="0.337" style="stop-color:#6D28D9"/>
				<stop  offset="0.4293" style="stop-color:#6F2BDA"/>
				<stop  offset="0.5098" style="stop-color:#7636DD"/>
				<stop  offset="0.5859" style="stop-color:#8148E1"/>
				<stop  offset="0.6593" style="stop-color:#9061E8"/>
				<stop  offset="0.7309" style="stop-color:#A482F0"/>
				<stop  offset="0.8" style="stop-color:#BDA9FA"/>
				<stop  offset="0.8185" style="stop-color:#C4B5FD"/>
				<stop  offset="1" style="stop-color:#C4B5FD;stop-opacity:0"/>
			</linearGradient>
			<path class="st5" d="M1535.6,412.7c-85.4,39.1-179.1,57.1-271.9,67.8c-48.1,5.5-96.4,9-144.7,11.7c-52.3,2.8-104.6,5.3-156.9,2.1
				c-52.5-3.2-104.9-9.5-157.1-15.1c-52.7-5.6-105.4-11.4-158.1-17c-52.6-5.6-105.1-10.9-157.8-15.7c-52.2-4.7-104.5-9.3-156.9-10.2
				c-92.8-1.5-190.7,9.5-272.1,57.7c-9.2,5.4-18,11.4-26.6,17.8c-1.5,1.1,0,3.8,1.5,2.6c76.2-57.4,175.9-74,269.1-75.2
				c52.8-0.7,105.5,3.3,158.1,7.8c52.7,4.6,105.4,9.8,158,15.3c105.2,11,210.2,24.2,315.6,32.9c52.4,4.3,104.6,3.7,157,1.1
				c48.5-2.4,96.9-5.4,145.2-10.2c91.7-9.2,184.3-24.5,270.3-58.7c9.7-3.8,19.2-7.9,28.6-12.3
				C1538.9,414.5,1537.3,411.9,1535.6,412.7L1535.6,412.7z"/>
		</g>
	</g>
	<g>
		<g>
			<linearGradient id="SVGID_6_" gradientUnits="userSpaceOnUse" x1="42.6132" y1="465.7711" x2="1538.488" y2="465.7711">
				<stop  offset="0" style="stop-color:#6D28D9;stop-opacity:0"/>
				<stop  offset="0.337" style="stop-color:#6D28D9"/>
				<stop  offset="0.4293" style="stop-color:#6F2BDA"/>
				<stop  offset="0.5098" style="stop-color:#7636DD"/>
				<stop  offset="0.5859" style="stop-color:#8148E1"/>
				<stop  offset="0.6593" style="stop-color:#9061E8"/>
				<stop  offset="0.7309" style="stop-color:#A482F0"/>
				<stop  offset="0.8" style="stop-color:#BDA9FA"/>
				<stop  offset="0.8185" style="stop-color:#C4B5FD"/>
				<stop  offset="1" style="stop-color:#C4B5FD;stop-opacity:0"/>
			</linearGradient>
			<path class="st6" d="M1537.9,444.3c-88.9,31.4-183.3,44.6-276.9,51.4c-48.3,3.5-96.6,5.2-145,6c-51.2,0.9-102.3,1.1-153.3-3.5
				c-51.5-4.6-102.8-11.9-154-18.6c-51.6-6.8-103.3-13.8-154.9-20.5c-101.9-13.2-204.4-27.8-307.1-31.9c-93.6-3.8-191.5,4-276.8,46
				c-9.5,4.7-18.7,9.8-27.7,15.4c-1.6,1-0.1,3.6,1.5,2.6c81.6-50.4,181.1-63,275.2-61.7c102.7,1.5,205.4,16.1,307.1,29.1
				c102.1,13.1,204.1,28.2,306.4,39.6c99.3,11,200.2,8.3,299.7,2.5c92.8-5.4,186.4-16.2,275.6-43.2c10.4-3.2,20.8-6.6,31-10.2
				C1540.5,446.5,1539.7,443.6,1537.9,444.3L1537.9,444.3z"/>
		</g>
	</g>
	<g>
		<g>
			<linearGradient id="SVGID_7_" gradientUnits="userSpaceOnUse" x1="51.2296" y1="465.3355" x2="1540.4109" y2="465.3355">
				<stop  offset="0" style="stop-color:#6D28D9;stop-opacity:0"/>
				<stop  offset="0.337" style="stop-color:#6D28D9"/>
				<stop  offset="0.4293" style="stop-color:#6F2BDA"/>
				<stop  offset="0.5098" style="stop-color:#7636DD"/>
				<stop  offset="0.5859" style="stop-color:#8148E1"/>
				<stop  offset="0.6593" style="stop-color:#9061E8"/>
				<stop  offset="0.7309" style="stop-color:#A482F0"/>
				<stop  offset="0.8" style="stop-color:#BDA9FA"/>
				<stop  offset="0.8185" style="stop-color:#C4B5FD"/>
				<stop  offset="1" style="stop-color:#C4B5FD;stop-opacity:0"/>
			</linearGradient>
			<path class="st7" d="M1539.9,476.1c-92,23.3-187.2,31.8-281.8,34.7c-48.9,1.5-97.8,1.3-146.7,0.2c-50.3-1.1-100.5-3.2-150.5-9.2
				c-102.4-12.4-204.2-30.8-306.1-46.6c-98.8-15.3-198.3-31.1-298.2-37.2c-93.5-5.7-190.4-0.6-278.3,34.8
				c-9.4,3.8-18.6,7.9-27.6,12.4c-1.7,0.9-0.2,3.4,1.5,2.6c85.2-42.2,183-51.6,276.8-48.1c101.1,3.7,201.8,19.7,301.7,34.9
				c101.1,15.4,202,33,303.4,46.8c97.4,13.3,196.3,14.8,294.5,13.1c93.6-1.6,187.7-8.1,279.4-27.8c11-2.3,21.9-4.9,32.8-7.7
				C1542.6,478.5,1541.8,475.6,1539.9,476.1L1539.9,476.1z"/>
		</g>
	</g>
	<g>
		<g>
			<linearGradient id="SVGID_8_" gradientUnits="userSpaceOnUse" x1="59.8477" y1="466.7455" x2="1542.3329" y2="466.7455">
				<stop  offset="0" style="stop-color:#6D28D9;stop-opacity:0"/>
				<stop  offset="0.337" style="stop-color:#6D28D9"/>
				<stop  offset="0.4293" style="stop-color:#6F2BDA"/>
				<stop  offset="0.5098" style="stop-color:#7636DD"/>
				<stop  offset="0.5859" style="stop-color:#8148E1"/>
				<stop  offset="0.6593" style="stop-color:#9061E8"/>
				<stop  offset="0.7309" style="stop-color:#A482F0"/>
				<stop  offset="0.8" style="stop-color:#BDA9FA"/>
				<stop  offset="0.8185" style="stop-color:#C4B5FD"/>
				<stop  offset="1" style="stop-color:#C4B5FD;stop-opacity:0"/>
			</linearGradient>
			<path class="st8" d="M1541.9,507.8c-94,14.8-189.4,18.8-284.5,17.6c-100-1.2-201-5.7-299.9-20.7c-99-15-197.3-35-295.8-52.8
				c-96.3-17.3-193.2-34.5-290.8-42.9c-93.4-8-189.3-6.1-279.6,21.6c-10.7,3.3-21.2,6.9-31.6,10.9c-1.8,0.7-1,3.6,0.8,2.9
				c88.4-34.1,184.9-40.3,278.8-34.7c99.8,6,198.9,23.3,297.2,40.7c98.6,17.5,196.8,37.1,295.6,53.3
				c97.2,15.9,195.7,21.8,294.1,24.2c95,2.3,190.4-0.1,284.7-12.5c10.6-1.4,21.3-3,31.9-4.6C1544.6,510.4,1543.7,507.5,1541.9,507.8
				L1541.9,507.8z"/>
		</g>
	</g>
	<g>
		<g>
			<linearGradient id="SVGID_9_" gradientUnits="userSpaceOnUse" x1="68.4663" y1="470.1155" x2="1544.2551" y2="470.1155">
				<stop  offset="0" style="stop-color:#6D28D9;stop-opacity:0"/>
				<stop  offset="0.337" style="stop-color:#6D28D9"/>
				<stop  offset="0.4293" style="stop-color:#6F2BDA"/>
				<stop  offset="0.5098" style="stop-color:#7636DD"/>
				<stop  offset="0.5859" style="stop-color:#8148E1"/>
				<stop  offset="0.6593" style="stop-color:#9061E8"/>
				<stop  offset="0.7309" style="stop-color:#A482F0"/>
				<stop  offset="0.8" style="stop-color:#BDA9FA"/>
				<stop  offset="0.8185" style="stop-color:#C4B5FD"/>
				<stop  offset="1" style="stop-color:#C4B5FD;stop-opacity:0"/>
			</linearGradient>
			<path class="st9" d="M1544.2,539.5c-95.2,6.4-190.8,5.7-286.1,0.6c-99.3-5.4-199.1-14.1-297.1-31.5
				c-97-17.3-193.1-39.3-289.6-59.2c-94.8-19.6-190.1-38.4-286.4-48.9c-94.6-10.4-191.1-11.4-284.4,9.5c-10.9,2.4-21.7,5.2-32.4,8.3
				c-1.9,0.5-1.1,3.4,0.8,2.9c92.2-26.2,189.2-29,284.2-20.8c97.7,8.4,194.4,26.9,290.3,46.4c96.5,19.6,192.6,41.4,289.4,59.7
				c95.5,18.1,192.2,28.1,289.2,34.5c95.8,6.3,192,8.4,288,3.6c11.4-0.6,22.8-1.2,34.2-2C1546.1,542.4,1546.2,539.4,1544.2,539.5
				L1544.2,539.5z"/>
		</g>
	</g>
	<g>
		<g>
			<linearGradient id="SVGID_10_" gradientUnits="userSpaceOnUse" x1="77.0842" y1="477.239" x2="1546.1973" y2="477.239">
				<stop  offset="0" style="stop-color:#6D28D9;stop-opacity:0"/>
				<stop  offset="0.337" style="stop-color:#6D28D9"/>
				<stop  offset="0.4293" style="stop-color:#6F2BDA"/>
				<stop  offset="0.5098" style="stop-color:#7636DD"/>
				<stop  offset="0.5859" style="stop-color:#8148E1"/>
				<stop  offset="0.6593" style="stop-color:#9061E8"/>
				<stop  offset="0.7309" style="stop-color:#A482F0"/>
				<stop  offset="0.8" style="stop-color:#BDA9FA"/>
				<stop  offset="0.8185" style="stop-color:#C4B5FD"/>
				<stop  offset="1" style="stop-color:#C4B5FD;stop-opacity:0"/>
			</linearGradient>
			<path class="st10" d="M1546.2,571.3c-96-1.8-191.9-7.2-287.4-16.5c-97.6-9.4-195.2-22.1-291.3-41.8
				c-96-19.6-190.9-43.9-286.3-66.2c-93.2-21.8-187-42.3-281.9-54.9c-95.4-12.7-192.4-16.9-287.9-3c-11.6,1.7-23.1,3.7-34.5,5.9
				c-1.9,0.4-1.1,3.3,0.8,2.9c95.6-18.4,193.7-17.6,290.1-6.7c96.8,10.9,192.4,31,287.3,52.8c94.5,21.7,188.5,45.6,283.2,66.1
				c94.5,20.3,190.2,34.2,286.3,44.4c95.3,10.1,191,16.5,286.8,19.2c11.6,0.3,23.3,0.6,34.9,0.8
				C1548.1,574.3,1548.1,571.3,1546.2,571.3L1546.2,571.3z"/>
		</g>
	</g>
	<g>
		<g>
			<linearGradient id="SVGID_11_" gradientUnits="userSpaceOnUse" x1="85.7006" y1="485.7281" x2="1548.2051" y2="485.7281">
				<stop  offset="0" style="stop-color:#6D28D9;stop-opacity:0"/>
				<stop  offset="0.337" style="stop-color:#6D28D9"/>
				<stop  offset="0.4293" style="stop-color:#6F2BDA"/>
				<stop  offset="0.5098" style="stop-color:#7636DD"/>
				<stop  offset="0.5859" style="stop-color:#8148E1"/>
				<stop  offset="0.6593" style="stop-color:#9061E8"/>
				<stop  offset="0.7309" style="stop-color:#A482F0"/>
				<stop  offset="0.8" style="stop-color:#BDA9FA"/>
				<stop  offset="0.8185" style="stop-color:#C4B5FD"/>
				<stop  offset="1" style="stop-color:#C4B5FD;stop-opacity:0"/>
			</linearGradient>
			<path class="st11" d="M1548.2,603c-97.5-9.9-195-20.3-292-34c-96-13.5-191.5-30.3-286-52.3c-94.2-21.9-187.4-48.2-281-72.6
				c-93.2-24.3-187.1-46.9-282.4-61.5c-94-14.4-189.5-21.3-284.5-14.5c-12.2,0.9-24.4,2-36.5,3.3c-1.9,0.2-1.9,3.2,0,3
				c95.5-10.4,191.9-6.3,287,6.3c96.3,12.8,191.2,34.4,285.3,58.4c93.7,24,186.8,50.4,280.8,73.2c94.2,22.9,189.5,40.8,285.4,55
				c95.3,14.1,191.1,25,286.9,34.9c12.3,1.3,24.6,2.5,37,3.8C1550.1,606.2,1550.1,603.2,1548.2,603L1548.2,603z"/>
		</g>
	</g>
</g>
</svg>
