<svg width="37" height="56" viewBox="0 0 37 56" fill="none" xmlns="http://www.w3.org/2000/svg">
<path d="M0.599518 28.0003C0.599518 25.7725 1.48452 23.6359 3.05983 22.0606C4.63514 20.4853 6.77172 19.6003 8.99954 19.6003H17.3996V36.4003H8.99954C6.77172 36.4003 4.63514 35.5153 3.05983 33.94C1.48452 32.3647 0.599518 30.2281 0.599518 28.0003Z" fill="#94A3B8"/>
<path d="M8.99954 0C6.77172 0 4.63514 0.885 3.05983 2.46031C1.48452 4.03562 0.599518 6.1722 0.599518 8.40002C0.599518 10.6278 1.48452 12.7644 3.05983 14.3397C4.63514 15.915 6.77172 16.8 8.99954 16.8H28.5996C30.8274 16.8 32.964 15.915 34.5393 14.3397C36.1146 12.7644 36.9996 10.6278 36.9996 8.40002C36.9996 6.1722 36.1146 4.03562 34.5393 2.46031C32.964 0.885 30.8274 0 28.5996 0H8.99954Z" fill="#94A3B8"/>
<path d="M28.5996 19.6003C26.3718 19.6003 24.2352 20.4853 22.6599 22.0606C21.0846 23.6359 20.1996 25.7725 20.1996 28.0003C20.1996 30.2281 21.0846 32.3647 22.6599 33.94C24.2352 35.5153 26.3718 36.4003 28.5996 36.4003C30.8274 36.4003 32.964 35.5153 34.5393 33.94C36.1146 32.3647 36.9996 30.2281 36.9996 28.0003C36.9996 25.7725 36.1146 23.6359 34.5393 22.0606C32.964 20.4853 30.8274 19.6003 28.5996 19.6003Z" fill="#94A3B8"/>
<path d="M8.99954 39.2C7.33818 39.2 5.71412 39.6926 4.33274 40.6156C2.95136 41.5386 1.87471 42.8505 1.23894 44.3854C0.603157 45.9203 0.436809 47.6093 0.760926 49.2387C1.08504 50.8682 1.88507 52.3649 3.05983 53.5397C4.2346 54.7145 5.73134 55.5145 7.36078 55.8386C8.99023 56.1627 10.6792 55.9964 12.2141 55.3606C13.749 54.7248 15.0609 53.6482 15.9839 52.2668C16.9069 50.8854 17.3996 49.2613 17.3996 47.6V39.2H8.99954Z" fill="#94A3B8"/>
</svg>
