<svg width="63" height="56" viewBox="0 0 63 56" fill="none" xmlns="http://www.w3.org/2000/svg">
<path d="M62.8831 28.0066C62.8831 23.8405 57.6664 19.892 49.6672 17.4448C51.5143 9.2936 50.6942 2.80616 47.0785 0.728396C46.2023 0.237699 45.2107 -0.00929592 44.2068 0.0131006V2.86904C44.7963 2.86904 45.2706 2.98695 45.6688 3.20442C47.4112 4.20531 48.1684 8.00973 47.5789 12.9068C47.4374 14.112 47.2069 15.3802 46.9239 16.6745C44.2452 16.029 41.5264 15.5625 38.7858 15.278C37.153 13.0254 35.3718 10.8844 33.4538 8.86913C37.6329 4.9861 41.5552 2.85856 44.2225 2.85856V0C40.6958 0 36.0818 2.5127 31.4153 6.86998C26.7515 2.54152 22.1348 0.0524025 18.6108 0.0524025V2.90834C21.265 2.90834 25.2004 5.02541 29.3795 8.88223C27.5847 10.7687 25.7899 12.9068 24.0842 15.278C21.3379 15.5593 18.6143 16.0303 15.933 16.6876C15.6369 15.4064 15.4195 14.1644 15.2649 12.9723C14.6622 8.07262 15.4064 4.26819 17.1383 3.25682C17.5208 3.02625 18.0212 2.92144 18.6108 2.92144V0.0655032C17.5365 0.0655032 16.5592 0.296074 15.7155 0.780798C12.1129 2.85856 11.3059 9.33028 13.1635 17.4579C5.19047 19.9208 0 23.8536 0 28.0066C0 32.1726 5.21668 36.1211 13.2159 38.5657C11.3687 46.7195 12.1888 53.207 15.8046 55.2821C16.6378 55.7694 17.6125 56 18.6868 56C22.2134 56 26.8275 53.4873 31.4939 49.13C36.1578 53.4611 40.7718 55.9476 44.2985 55.9476C45.3101 55.969 46.3093 55.7212 47.1937 55.2297C50.7964 53.1545 51.6034 46.6828 49.7458 38.5552C57.6926 36.108 62.8831 32.1595 62.8831 28.0066ZM46.1929 19.4571C45.695 21.1703 45.118 22.8594 44.4636 24.5192C43.3924 22.4355 42.2162 20.4076 40.9395 18.4431C42.7605 18.713 44.516 19.0457 46.1955 19.4571H46.1929ZM40.3238 33.1079C39.3255 34.8372 38.2984 36.48 37.2346 38.005C33.389 38.3439 29.5211 38.3483 25.6746 38.0181C23.4684 34.8665 21.5389 31.53 19.9077 28.0459C21.5364 24.5535 23.4577 21.2052 25.6511 18.037C29.4958 17.6973 33.3628 17.6921 37.2084 18.0212C38.2722 19.5462 39.3124 21.1759 40.3107 22.8947C41.2854 24.5716 42.171 26.2746 42.978 27.9935C42.162 29.7331 41.2766 31.4393 40.3238 33.1079ZM44.4636 31.4415C45.1553 33.1577 45.7474 34.8765 46.2322 36.5429C44.5553 36.9543 42.7841 37.3001 40.9526 37.5674C42.224 35.5851 43.3958 33.5406 44.4636 31.4415ZM31.4677 45.1186C30.2756 43.8871 29.0834 42.5168 27.9044 41.0155C29.0572 41.0679 30.2363 41.1072 31.4284 41.1072C32.6337 41.1072 33.8259 41.081 34.9918 41.0155C33.839 42.5168 32.6468 43.8871 31.4677 45.1186ZM21.9305 37.5674C20.1638 37.3114 18.41 36.9739 16.6745 36.556C17.1487 34.9027 17.7383 33.197 18.4038 31.4939C18.9304 32.5158 19.4833 33.5429 20.0859 34.57C20.6885 35.5944 21.3016 36.5953 21.9305 37.5674ZM31.4022 10.8945C32.5944 12.126 33.7866 13.4963 34.9656 14.9976C33.8128 14.9452 32.6337 14.9059 31.4415 14.9059C30.2363 14.9059 29.0441 14.9321 27.8782 14.9976C29.031 13.4963 30.2232 12.126 31.4022 10.8945ZM21.9174 18.4457C20.6463 20.4237 19.4745 22.4638 18.4064 24.5585C17.7336 22.888 17.1433 21.1855 16.6378 19.4571C18.3147 19.0588 20.0859 18.713 21.9174 18.4457ZM10.3181 34.4914C5.78 32.5577 2.84546 30.0188 2.84546 28.0066C2.84546 25.9943 5.78 23.4423 10.3181 21.5217C11.4185 21.0475 12.6238 20.623 13.8683 20.2274C14.5994 22.7375 15.5609 25.3524 16.7505 28.0328C15.6274 30.5538 14.6776 33.1485 13.9076 35.7988C12.6905 35.4219 11.4925 34.9856 10.3181 34.4914ZM17.2142 52.8061C15.4719 51.8104 14.7146 48.0008 15.3042 43.1063C15.4457 41.9011 15.6762 40.6303 15.9592 39.336C18.4693 39.9517 21.2126 40.426 24.0973 40.7351C25.7301 42.9876 27.5114 45.1287 29.4293 47.144C25.2502 51.027 21.3278 53.1545 18.6606 53.1545C18.1573 53.16 17.6605 53.0412 17.2142 52.8087V52.8061ZM47.6182 43.0408C48.2208 47.9379 47.4767 51.7449 45.7448 52.7563C45.3623 52.9869 44.8618 53.089 44.2723 53.089C41.6181 53.089 37.6827 50.9746 33.5036 47.1152C35.2984 45.2339 37.0932 43.0933 38.7989 40.722C41.5452 40.4407 44.2688 39.9697 46.9501 39.3124C47.2462 40.6068 47.4741 41.8487 47.6182 43.0408ZM52.5519 34.4914C51.4515 34.9656 50.2462 35.3901 49.0016 35.7857C48.2182 33.1219 47.2552 30.5141 46.1195 27.9804C47.2986 25.3157 48.2444 22.7139 48.9623 20.2143C50.2331 20.6099 51.4357 21.0475 52.565 21.5217C57.1031 23.4554 60.0376 25.9943 60.0376 28.0066C60.0245 30.0188 57.09 32.5708 52.5519 34.4914Z" fill="#94A3B8"/>
<path d="M31.4284 33.8648C32.9822 33.8648 34.4724 33.2476 35.5711 32.1489C36.6698 31.0501 37.2871 29.56 37.2871 28.0062C37.2871 26.4524 36.6698 24.9622 35.5711 23.8635C34.4724 22.7648 32.9822 22.1476 31.4284 22.1476C29.8746 22.1476 28.3845 22.7648 27.2858 23.8635C26.1871 24.9622 25.5698 26.4524 25.5698 28.0062C25.5698 29.56 26.1871 31.0501 27.2858 32.1489C28.3845 33.2476 29.8746 33.8648 31.4284 33.8648Z" fill="#94A3B8"/>
</svg>
