<?xml version="1.0" encoding="utf-8"?>
<!-- Generator: Adobe Illustrator 19.2.1, SVG Export Plug-In . SVG Version: 6.00 Build 0)  -->
<svg version="1.1" id="Capa_1" xmlns="http://www.w3.org/2000/svg" xmlns:xlink="http://www.w3.org/1999/xlink" x="0px" y="0px"
	 viewBox="0 0 560 560" style="enable-background:new 0 0 560 560;" xml:space="preserve">
<style type="text/css">
	.st0{fill:url(#SVGID_1_);}
	.st1{fill:url(#SVGID_2_);}
	.st2{fill:url(#SVGID_3_);}
</style>
<linearGradient id="SVGID_1_" gradientUnits="userSpaceOnUse" x1="6.5" y1="280" x2="553.5" y2="280">
	<stop  offset="0" style="stop-color:#D8AAFD"/>
	<stop  offset="1" style="stop-color:#AC54F0"/>
</linearGradient>
<path class="st0" d="M280,6.5C129,6.5,6.5,129,6.5,280S129,553.5,280,553.5S553.5,431,553.5,280S431,6.5,280,6.5z M194.7,379H82
	V178.7h48.8v162.7h63.9V379z M335.1,379H274l-71.1-200.3h51.9l49.7,151.2l49.9-151.2h51.7L335.1,379z M469.9,373.7
	c-5.4,5-12.3,7.6-20.7,7.6c-8.6,0-15.6-2.5-21-7.6c-5.4-5-8.1-11.3-8.1-18.7c0-7.6,2.7-14,8.1-19.1c5.4-5.1,12.4-7.7,21-7.7
	c8.4,0,15.3,2.6,20.7,7.7c5.4,5.1,8.1,11.5,8.1,19.1C478,362.5,475.3,368.7,469.9,373.7z"/>
<linearGradient id="SVGID_2_" gradientUnits="userSpaceOnUse" x1="-368.3629" y1="928.8071" x2="178.6371" y2="928.8071">
	<stop  offset="0" style="stop-color:#D8AAFD"/>
	<stop  offset="1" style="stop-color:#AC54F0"/>
</linearGradient>
<circle class="st1" cx="-94.9" cy="928.8" r="273.5"/>
<g>
	<path d="M-244.1,990.2h63.9v37.7h-112.7V827.5h48.8V990.2z"/>
	<path d="M31.3,827.5l-71.1,200.3h-61.1l-71.1-200.3h51.9l49.7,151.2l49.9-151.2H31.3z"/>
	<path d="M53.4,1022.6c-5.4-5-8.1-11.3-8.1-18.7c0-7.6,2.7-14,8.1-19.1c5.4-5.1,12.4-7.7,21-7.7c8.4,0,15.3,2.6,20.7,7.7
		c5.4,5.1,8.1,11.5,8.1,19.1c0,7.4-2.7,13.7-8.1,18.7c-5.4,5-12.3,7.6-20.7,7.6C65.8,1030.1,58.8,1027.6,53.4,1022.6z"/>
</g>
<linearGradient id="SVGID_3_" gradientUnits="userSpaceOnUse" x1="798.031" y1="316.9123" x2="1345.031" y2="316.9123">
	<stop  offset="0" style="stop-color:#D8AAFD"/>
	<stop  offset="1" style="stop-color:#AC54F0"/>
</linearGradient>
<circle class="st2" cx="1071.5" cy="316.9" r="273.5"/>
<text transform="matrix(1 0 0 1 863 427.7275)" style="font-family:'Poppins-Bold'; font-size:285.377px;">LV.</text>
</svg>
