<svg width="57" height="56" viewBox="0 0 57 56" fill="none" xmlns="http://www.w3.org/2000/svg">
<path fill-rule="evenodd" clip-rule="evenodd" d="M0.055542 0H56.0555V56H0.055542V0ZM42.8652 46.9467C40.2682 46.9467 38.8005 45.5933 37.6735 43.75L33.3965 46.235C34.9412 49.287 38.0982 51.6157 42.9865 51.6157C47.9845 51.6157 51.7062 49.021 51.7062 44.282C51.7062 39.8883 49.1815 37.9353 44.7109 36.015L43.3949 35.4527C41.1362 34.4727 40.1585 33.8357 40.1585 32.256C40.1585 30.9797 41.1385 30.002 42.6785 30.002C44.1882 30.002 45.1612 30.639 46.0642 32.256L50.1615 29.6263C48.4279 26.5767 46.0245 25.4123 42.6785 25.4123C37.9792 25.4123 34.9715 28.4177 34.9715 32.3657C34.9715 36.6473 37.4915 38.675 41.2902 40.292L42.6062 40.8567C45.0072 41.9067 46.4375 42.546 46.4375 44.3497C46.4375 45.857 45.0445 46.9467 42.8652 46.9467ZM22.4719 46.9117C20.6635 46.9117 19.9099 45.675 19.0839 44.205L14.7999 46.7997C16.0412 49.427 18.4819 51.6063 22.6935 51.6063C27.3579 51.6063 30.5522 49.126 30.5522 43.6777V25.711H25.2905V43.6077C25.2905 46.2373 24.1985 46.9117 22.4695 46.9117H22.4719Z" fill="#94A3B8"/>
</svg>
