<svg width="25" height="24" viewBox="0 0 25 24" fill="none" xmlns="http://www.w3.org/2000/svg">
<path d="M12.4546 7.9983C10.2511 7.9983 8.45292 9.79651 8.45292 12C8.45292 14.2035 10.2511 16.0017 12.4546 16.0017C14.658 16.0017 16.4562 14.2035 16.4562 12C16.4562 9.79651 14.658 7.9983 12.4546 7.9983ZM24.4564 12C24.4564 10.3429 24.4715 8.70077 24.3784 7.04665C24.2853 5.12536 23.847 3.4202 22.4421 2.01525C21.0342 0.607302 19.3321 0.172008 17.4108 0.0789456C15.7537 -0.0141173 14.1116 0.000892936 12.4576 0.000892936C10.8005 0.000892936 9.15839 -0.0141173 7.5043 0.0789456C5.58304 0.172008 3.87792 0.610305 2.473 2.01525C1.06507 3.42321 0.629784 5.12536 0.536723 7.04665C0.443662 8.70377 0.458672 10.3459 0.458672 12C0.458672 13.6541 0.443662 15.2992 0.536723 16.9533C0.629784 18.8746 1.06807 20.5798 2.473 21.9847C3.88092 23.3927 5.58304 23.828 7.5043 23.9211C9.16139 24.0141 10.8035 23.9991 12.4576 23.9991C14.1146 23.9991 15.7567 24.0141 17.4108 23.9211C19.3321 23.828 21.0372 23.3897 22.4421 21.9847C23.85 20.5768 24.2853 18.8746 24.3784 16.9533C24.4745 15.2992 24.4564 13.6571 24.4564 12ZM12.4546 18.1572C9.04731 18.1572 6.29751 15.4073 6.29751 12C6.29751 8.5927 9.04731 5.84284 12.4546 5.84284C15.8618 5.84284 18.6116 8.5927 18.6116 12C18.6116 15.4073 15.8618 18.1572 12.4546 18.1572ZM18.8638 7.02864C18.0682 7.02864 17.4258 6.38621 17.4258 5.59067C17.4258 4.79513 18.0682 4.1527 18.8638 4.1527C19.6593 4.1527 20.3017 4.79513 20.3017 5.59067C20.3019 5.77957 20.2649 5.96667 20.1927 6.14124C20.1206 6.31581 20.0146 6.47442 19.8811 6.608C19.7475 6.74157 19.5889 6.84748 19.4143 6.91967C19.2398 6.99185 19.0527 7.02888 18.8638 7.02864Z" fill="#94A3B8"/>
</svg>
