<svg width="50" height="56" viewBox="0 0 50 56" fill="none" xmlns="http://www.w3.org/2000/svg">
<path d="M0 0L4.52834 50.3832L24.8606 56L45.2466 50.3636L49.7778 0H0ZM40.3678 11.5444L38.8583 28.3276L38.864 28.42L38.8583 28.6272L37.7842 40.3592L37.6683 41.4036L24.8889 44.9036L24.8776 44.9148L12.1236 41.3924L11.2587 31.6904H17.5113L17.9551 36.624L24.8889 38.486L31.8453 36.5988L32.5803 28.5656H18.0399L17.9155 27.2076L17.63 24.0268L17.483 22.3188H33.1371L33.7081 16.0692H9.85662L9.73225 14.7112L9.44958 11.5276L9.29977 9.8196H40.5176L40.3678 11.5444Z" fill="#94A3B8"/>
</svg>
