<svg width="57" height="56" viewBox="0 0 57 56" fill="none" xmlns="http://www.w3.org/2000/svg">
<path d="M55.8257 25.5006L31.3713 1.05896C31.0364 0.723285 30.6386 0.456963 30.2006 0.27525C29.7626 0.0935357 29.2931 0 28.8189 0C28.3447 0 27.8752 0.0935357 27.4372 0.27525C26.9992 0.456963 26.6014 0.723285 26.2665 1.05896L21.1985 6.13485L27.642 12.5685C28.3989 12.3118 29.2126 12.2723 29.9909 12.4544C30.7691 12.6366 31.4807 13.0331 32.045 13.5991C33.249 14.8029 33.585 16.5333 33.0757 18.0276L39.2742 24.2338C40.0337 23.9694 40.8523 23.9248 41.636 24.1053C42.4196 24.2858 43.1363 24.6839 43.7035 25.2538C45.3905 26.9301 45.3905 29.6456 43.7035 31.3236C43.3057 31.722 42.8333 32.0382 42.3132 32.2539C41.7931 32.4696 41.2355 32.5806 40.6725 32.5806C40.1094 32.5806 39.5519 32.4696 39.0318 32.2539C38.5117 32.0382 38.0392 31.722 37.6415 31.3236C37.0442 30.726 36.6358 29.966 36.4671 29.1382C36.2985 28.3103 36.377 27.4512 36.693 26.6676L30.8865 20.8901V36.1177C31.296 36.319 31.688 36.5919 32.0257 36.9296C33.6935 38.6163 33.6935 41.3214 32.0257 42.9993C31.2173 43.8044 30.1227 44.2564 28.9816 44.2564C27.8406 44.2564 26.746 43.8044 25.9375 42.9993C25.4372 42.499 25.0684 41.8827 24.8639 41.2054C24.6594 40.5281 24.6255 39.8107 24.7653 39.1171C24.9051 38.4236 25.2142 37.7753 25.6651 37.23C26.116 36.6847 26.6947 36.2594 27.3498 35.9918V20.6189C26.8273 20.397 26.3511 20.0789 25.9463 19.681C25.3441 19.0805 24.9348 18.314 24.7708 17.4796C24.6068 16.6451 24.6956 15.7808 25.0258 14.9971L18.6995 8.63692L1.92931 25.3956C1.2589 26.0758 0.883087 26.9925 0.883087 27.9475C0.883087 28.9025 1.2589 29.8192 1.92931 30.4995L26.3838 54.941C26.7186 55.2767 27.1165 55.543 27.5544 55.7248C27.9924 55.9065 28.4619 56 28.9361 56C29.4103 56 29.8799 55.9065 30.3178 55.7248C30.7558 55.543 31.1536 55.2767 31.4885 54.941L55.824 30.6097C56.1597 30.2749 56.426 29.8771 56.6078 29.4392C56.7895 29.0013 56.8831 28.5319 56.8831 28.0577C56.8831 27.5836 56.7895 27.1142 56.6078 26.6763C56.426 26.2384 56.1597 25.8406 55.824 25.5058L55.8257 25.5006Z" fill="#94A3B8"/>
</svg>
