<svg width="76" height="56" viewBox="0 0 76 56" fill="none" xmlns="http://www.w3.org/2000/svg">
<path d="M35.7702 42.3367C35.7352 42.4067 35.7002 42.4627 35.7702 42.3367V42.3367ZM64.8357 32.1875C62.4892 32.1868 60.1739 32.7256 58.069 33.7624C57.3806 32.3742 56.6689 31.161 56.5523 30.251C56.4123 29.1895 56.2606 28.5595 56.4239 27.2996C56.5873 26.0397 57.3223 24.2549 57.3106 24.1265C57.299 23.9982 57.1473 23.3566 55.6423 23.3449C54.1372 23.3333 52.8422 23.6366 52.6917 24.0332C52.4259 24.7581 52.2191 25.5032 52.0734 26.2614C51.8051 27.6263 49.0645 32.5025 47.5128 35.0457C46.9995 34.0541 46.5678 33.1791 46.4745 32.4792C46.3345 31.4176 46.1828 30.7877 46.3462 29.5278C46.5095 28.2679 47.2445 26.483 47.2328 26.3547C47.2212 26.2264 47.0695 25.5848 45.5656 25.5731C44.0618 25.5614 42.7656 25.8647 42.6139 26.2614C42.4623 26.658 42.2989 27.5913 41.9956 28.4895C41.6923 29.3878 38.0417 37.5071 37.0862 39.6186C36.5962 40.6919 36.1762 41.5551 35.8729 42.1384C35.8262 42.2317 35.7912 42.2901 35.7679 42.3367C35.8029 42.2784 35.8262 42.2201 35.8262 42.2434C35.5695 42.745 35.4179 43.025 35.4179 43.025V43.0367C35.2195 43.41 34.9979 43.7483 34.8929 43.7483C34.8229 43.7483 34.6712 42.7684 34.9279 41.4268C35.4762 38.6037 36.7712 34.2174 36.7595 34.0657C36.7479 33.9841 37.0045 33.2258 35.9079 32.8175C34.8462 32.4325 34.4612 33.0741 34.3679 33.0741C34.2745 33.0741 34.2045 33.3075 34.2045 33.3075C34.2045 33.3075 35.3829 28.3612 31.9423 28.3612C29.7956 28.3612 26.8089 30.7177 25.3412 32.8525C24.4196 33.3541 22.4245 34.439 20.3245 35.5939C19.5195 36.0372 18.6912 36.4922 17.9095 36.9238C17.8512 36.8655 17.8045 36.8072 17.7462 36.7488C13.5706 32.2925 5.86119 29.1428 6.18786 23.1583C6.30453 20.9768 7.06287 15.2489 21.0129 8.29616C32.4463 2.60329 41.5873 4.1665 43.1611 7.64288C45.4245 12.6008 38.2739 21.8284 26.4006 23.1583C21.875 23.6599 19.4962 21.9101 18.9012 21.2568C18.2828 20.5685 18.1895 20.5335 17.9562 20.6618C17.5712 20.8718 17.8162 21.4784 17.9562 21.8401C18.3062 22.7617 19.7645 24.3948 22.2484 25.2115C24.4301 25.9231 29.7361 26.3197 36.1517 23.8349C43.3595 21.0585 48.97 13.3241 47.325 6.84961C45.6497 0.27015 34.7389 -1.88801 24.4219 1.77503C18.2747 3.95652 11.6269 7.38624 6.8447 11.8542C1.16413 17.1738 0.255289 21.8051 0.628627 23.7416C1.95748 30.6127 11.4286 35.0923 15.2191 38.4054C15.0325 38.5104 14.8575 38.6037 14.6941 38.697C12.7936 39.6419 5.57302 43.4216 3.76583 47.4113C1.72414 51.9376 4.10417 55.1807 5.66635 55.624C10.5419 56.9772 15.5341 54.5391 18.2163 50.5377C20.8985 46.5364 20.573 41.3101 19.3363 38.9303C19.3247 38.8953 19.3013 38.872 19.2897 38.837C19.7797 38.5454 20.2814 38.2537 20.783 37.9621C21.7502 37.3905 22.6952 36.8655 23.5236 36.4105C23.0569 37.6704 22.7185 39.187 22.5435 41.3801C22.3335 43.9466 23.3952 47.2713 24.7719 48.5779C25.3786 49.1495 26.1124 49.1612 26.5674 49.1612C28.1774 49.1612 28.9008 47.8313 29.7046 46.2447C30.6963 44.3082 31.5713 42.0567 31.5713 42.0567C31.5713 42.0567 30.4746 48.1462 33.473 48.1462C34.5685 48.1462 35.6652 46.7347 36.1564 46.0114V46.0231C36.1564 46.0231 36.1797 45.9764 36.238 45.8831C36.3547 45.7081 36.413 45.6031 36.413 45.6031V45.5681C36.8564 44.8099 37.8247 43.0717 39.2819 40.2019C41.1719 36.4922 42.9791 31.8609 42.9791 31.8609C43.1538 32.879 43.3954 33.8844 43.7025 34.8707C44.0291 35.9789 44.7175 37.1921 45.2658 38.3704C44.8225 38.977 44.5541 39.327 44.5541 39.327C44.555 39.3359 44.5591 39.3442 44.5658 39.3503C44.2158 39.8169 43.8191 40.3186 43.4108 40.8085C41.9186 42.5817 40.1441 44.6115 39.9107 45.1948C39.6307 45.8831 39.7007 46.3964 40.2374 46.793C40.6341 47.0963 41.3341 47.143 42.0679 47.0847C43.4096 46.9913 44.3546 46.6647 44.8096 46.4547C45.6485 46.154 46.4413 45.7378 47.1652 45.2182C48.6235 44.1449 49.5102 42.605 49.4285 40.5752C49.3819 39.4553 49.0202 38.3354 48.5768 37.2855C48.7052 37.0988 48.8452 36.9005 48.9735 36.7022C51.2824 33.3308 53.0674 29.6304 53.0674 29.6304C53.242 30.6485 53.4837 31.6539 53.7907 32.6402C54.0707 33.5851 54.6179 34.6234 55.1196 35.6383C52.9507 37.3998 51.6091 39.4413 51.1424 40.7828C50.279 43.2676 50.9557 44.3876 52.2274 44.6442C52.7991 44.7609 53.6157 44.4925 54.2224 44.2359C55.1234 43.9358 55.9729 43.4991 56.7413 42.941C58.1996 41.8678 59.6101 40.3629 59.5168 38.3214C59.4818 37.3998 59.2251 36.4782 58.8868 35.5916C60.7185 34.8217 63.0974 34.4017 66.1307 34.7517C72.6268 35.5099 73.8985 39.5696 73.6535 41.2611C73.4085 42.9527 72.0435 43.8976 71.5885 44.1776C71.1334 44.4576 70.9934 44.5625 71.0285 44.7725C71.0868 45.0758 71.2968 45.0642 71.6818 44.9942C72.2185 44.9008 75.0873 43.6176 75.2157 40.4795C75.4023 36.5132 71.5885 32.1502 64.8322 32.1852L64.8357 32.1875ZM14.7641 49.0678C12.6186 51.4126 9.60857 52.2992 8.31472 51.5526C6.92637 50.7454 7.47471 47.2947 10.1219 44.7959C11.7319 43.2793 13.8074 41.8794 15.1841 41.0162C15.4991 40.8295 15.9541 40.5495 16.5141 40.2112C16.6075 40.1529 16.6541 40.1296 16.6541 40.1296C16.7591 40.0596 16.8758 40.0012 16.9925 39.9313C17.9597 43.4776 17.0275 46.604 14.7641 49.0655V49.0678ZM30.4396 38.4054C29.693 40.2369 28.1191 44.9032 27.1624 44.6582C26.3458 44.4482 25.8441 40.8902 26.9991 37.3905C27.5824 35.6289 28.8191 33.5291 29.5541 32.7125C30.7313 31.3943 32.0263 30.9743 32.3297 31.4993C32.738 32.1875 30.9063 37.2621 30.4396 38.4054ZM43.3898 44.5882C43.0748 44.7515 42.7831 44.8565 42.6431 44.7749C42.5381 44.7165 42.7715 44.4949 42.7715 44.4949C42.7715 44.4949 44.3931 42.7567 45.0348 41.9634C45.4081 41.4968 45.8398 40.9485 46.3053 40.3419C46.3053 40.4002 46.317 40.4585 46.317 40.5285C46.3018 42.6167 44.2963 44.0283 43.3863 44.5882H43.3898ZM53.3742 42.3134C53.1409 42.1501 53.1759 41.6018 53.9576 39.8986C54.2609 39.2336 54.9598 38.1137 56.1743 37.0405C56.3118 37.4468 56.3865 37.8716 56.3959 38.3004C56.3843 40.9252 54.5059 41.9051 53.3754 42.3134H53.3742Z" fill="#94A3B8"/>
</svg>
